<?xml version="1.0" encoding="UTF-8" standalone="no"?>
<!DOCTYPE svg PUBLIC "-//W3C//DTD SVG 1.1//EN"
 "http://www.w3.org/Graphics/SVG/1.1/DTD/svg11.dtd">
<!-- Generated by graphviz version 2.44.1 (20200629.0846)
 -->
<!-- Title: dependencies Pages: 1 -->
<svg width="2989pt" height="284pt"
 viewBox="0.00 0.00 2989.00 284.00" xmlns="http://www.w3.org/2000/svg" xmlns:xlink="http://www.w3.org/1999/xlink">
<g id="graph0" class="graph" transform="scale(1 1) rotate(0) translate(4 280)">
<title>dependencies</title>
<polygon fill="white" stroke="transparent" points="-4,4 -4,-280 2985,-280 2985,4 -4,4"/>
<text text-anchor="start" x="1469.51" y="-42.4" font-family="sans-serif" font-weight="bold" font-size="14.00">Legend</text>
<polygon fill="#ffffb3" stroke="transparent" points="1256.5,-10 1256.5,-30 1276.5,-30 1276.5,-10 1256.5,-10"/>
<text text-anchor="start" x="1280.13" y="-15.4" font-family="sans-serif" font-size="14.00"> &#160;Declarations</text>
<polygon fill="#8dd3c7" stroke="transparent" points="1369.5,-10 1369.5,-30 1389.5,-30 1389.5,-10 1369.5,-10"/>
<text text-anchor="start" x="1393.23" y="-15.4" font-family="sans-serif" font-size="14.00"> &#160;Module</text>
<polygon fill="#80b1d3" stroke="transparent" points="1455.5,-10 1455.5,-30 1475.5,-30 1475.5,-10 1455.5,-10"/>
<text text-anchor="start" x="1479.28" y="-15.4" font-family="sans-serif" font-size="14.00"> &#160;Bootstrap</text>
<polygon fill="#fdb462" stroke="transparent" points="1552.5,-10 1552.5,-30 1572.5,-30 1572.5,-10 1552.5,-10"/>
<text text-anchor="start" x="1576.17" y="-15.4" font-family="sans-serif" font-size="14.00"> &#160;Providers</text>
<polygon fill="#fb8072" stroke="transparent" points="1648.5,-10 1648.5,-30 1668.5,-30 1668.5,-10 1648.5,-10"/>
<text text-anchor="start" x="1672.23" y="-15.4" font-family="sans-serif" font-size="14.00"> &#160;Exports</text>
<g id="clust1" class="cluster">
<title>cluster_AppModule</title>
<polygon fill="none" stroke="black" stroke-dasharray="1,5" points="8,-70 8,-268 2973,-268 2973,-70 8,-70"/>
</g>
<g id="clust2" class="cluster">
<title>cluster_AppModule_declarations</title>
<polygon fill="none" stroke="black" points="168,-78 168,-130 2965,-130 2965,-78 168,-78"/>
</g>
<g id="clust21" class="cluster">
<title>cluster_AppModule_imports</title>
<polygon fill="none" stroke="black" points="16,-78 16,-130 160,-130 160,-78 16,-78"/>
</g>
<g id="clust23" class="cluster">
<title>cluster_AppModule_bootstrap</title>
<polygon fill="none" stroke="black" points="1473,-208 1473,-260 1597,-260 1597,-208 1473,-208"/>
</g>
<!-- AlertasComponent -->
<g id="node1" class="node">
<title>AlertasComponent</title>
<polygon fill="#ffffb3" stroke="black" points="2956.75,-122 2835.25,-122 2835.25,-86 2956.75,-86 2956.75,-122"/>
<text text-anchor="middle" x="2896" y="-99.8" font-family="Times,serif" font-size="14.00">AlertasComponent</text>
</g>
<!-- AppModule -->
<g id="node19" class="node">
<title>AppModule</title>
<polygon fill="#8dd3c7" stroke="black" points="1576.66,-187 1573.66,-191 1552.66,-191 1549.66,-187 1493.34,-187 1493.34,-151 1576.66,-151 1576.66,-187"/>
<text text-anchor="middle" x="1535" y="-164.8" font-family="Times,serif" font-size="14.00">AppModule</text>
</g>
<!-- AlertasComponent&#45;&gt;AppModule -->
<g id="edge1" class="edge">
<title>AlertasComponent&#45;&gt;AppModule</title>
<path fill="none" stroke="black" d="M2896,-122.15C2896,-145.76 2896,-184 2896,-184 2896,-184 1586.85,-184 1586.85,-184"/>
<polygon fill="black" stroke="black" points="1586.85,-180.5 1576.85,-184 1586.85,-187.5 1586.85,-180.5"/>
</g>
<!-- AppComponent -->
<g id="node2" class="node">
<title>AppComponent</title>
<polygon fill="#ffffb3" stroke="black" points="2816.94,-122 2711.06,-122 2711.06,-86 2816.94,-86 2816.94,-122"/>
<text text-anchor="middle" x="2764" y="-99.8" font-family="Times,serif" font-size="14.00">AppComponent</text>
</g>
<!-- AppComponent&#45;&gt;AppModule -->
<g id="edge2" class="edge">
<title>AppComponent&#45;&gt;AppModule</title>
<path fill="none" stroke="black" d="M2764,-122.01C2764,-144.49 2764,-180 2764,-180 2764,-180 1586.95,-180 1586.95,-180"/>
<polygon fill="black" stroke="black" points="1586.95,-176.5 1576.95,-180 1586.95,-183.5 1586.95,-176.5"/>
</g>
<!-- CadastroComponent -->
<g id="node3" class="node">
<title>CadastroComponent</title>
<polygon fill="#ffffb3" stroke="black" points="2693.59,-122 2562.41,-122 2562.41,-86 2693.59,-86 2693.59,-122"/>
<text text-anchor="middle" x="2628" y="-99.8" font-family="Times,serif" font-size="14.00">CadastroComponent</text>
</g>
<!-- CadastroComponent&#45;&gt;AppModule -->
<g id="edge3" class="edge">
<title>CadastroComponent&#45;&gt;AppModule</title>
<path fill="none" stroke="black" d="M2628,-122.04C2628,-143.66 2628,-177 2628,-177 2628,-177 1586.84,-177 1586.84,-177"/>
<polygon fill="black" stroke="black" points="1586.84,-173.5 1576.84,-177 1586.84,-180.5 1586.84,-173.5"/>
</g>
<!-- ContatoComponent -->
<g id="node4" class="node">
<title>ContatoComponent</title>
<polygon fill="#ffffb3" stroke="black" points="2544.67,-122 2419.33,-122 2419.33,-86 2544.67,-86 2544.67,-122"/>
<text text-anchor="middle" x="2482" y="-99.8" font-family="Times,serif" font-size="14.00">ContatoComponent</text>
</g>
<!-- ContatoComponent&#45;&gt;AppModule -->
<g id="edge4" class="edge">
<title>ContatoComponent&#45;&gt;AppModule</title>
<path fill="none" stroke="black" d="M2482,-122.13C2482,-142.57 2482,-173 2482,-173 2482,-173 1586.91,-173 1586.91,-173"/>
<polygon fill="black" stroke="black" points="1586.91,-169.5 1576.91,-173 1586.91,-176.5 1586.91,-169.5"/>
</g>
<!-- DeleteCategoriaComponent -->
<g id="node5" class="node">
<title>DeleteCategoriaComponent</title>
<polygon fill="#ffffb3" stroke="black" points="2401.29,-122 2228.71,-122 2228.71,-86 2401.29,-86 2401.29,-122"/>
<text text-anchor="middle" x="2315" y="-99.8" font-family="Times,serif" font-size="14.00">DeleteCategoriaComponent</text>
</g>
<!-- DeleteCategoriaComponent&#45;&gt;AppModule -->
<g id="edge5" class="edge">
<title>DeleteCategoriaComponent&#45;&gt;AppModule</title>
<path fill="none" stroke="black" d="M2315,-122.11C2315,-141.34 2315,-169 2315,-169 2315,-169 1586.66,-169 1586.66,-169"/>
<polygon fill="black" stroke="black" points="1586.66,-165.5 1576.66,-169 1586.66,-172.5 1586.66,-165.5"/>
</g>
<!-- DeleteProdutoComponent -->
<g id="node6" class="node">
<title>DeleteProdutoComponent</title>
<polygon fill="#ffffb3" stroke="black" points="2211.2,-122 2048.8,-122 2048.8,-86 2211.2,-86 2211.2,-122"/>
<text text-anchor="middle" x="2130" y="-99.8" font-family="Times,serif" font-size="14.00">DeleteProdutoComponent</text>
</g>
<!-- DeleteProdutoComponent&#45;&gt;AppModule -->
<g id="edge6" class="edge">
<title>DeleteProdutoComponent&#45;&gt;AppModule</title>
<path fill="none" stroke="black" d="M2130,-122.27C2130,-140.56 2130,-166 2130,-166 2130,-166 1586.84,-166 1586.84,-166"/>
<polygon fill="black" stroke="black" points="1586.84,-162.5 1576.84,-166 1586.84,-169.5 1586.84,-162.5"/>
</g>
<!-- DoeComponent -->
<g id="node7" class="node">
<title>DoeComponent</title>
<polygon fill="#ffffb3" stroke="black" points="2031.15,-122 1926.85,-122 1926.85,-86 2031.15,-86 2031.15,-122"/>
<text text-anchor="middle" x="1979" y="-99.8" font-family="Times,serif" font-size="14.00">DoeComponent</text>
</g>
<!-- DoeComponent&#45;&gt;AppModule -->
<g id="edge7" class="edge">
<title>DoeComponent&#45;&gt;AppModule</title>
<path fill="none" stroke="black" d="M1979,-122.03C1979,-139.06 1979,-162 1979,-162 1979,-162 1586.77,-162 1586.77,-162"/>
<polygon fill="black" stroke="black" points="1586.77,-158.5 1576.77,-162 1586.77,-165.5 1586.77,-158.5"/>
</g>
<!-- FooterComponent -->
<g id="node8" class="node">
<title>FooterComponent</title>
<polygon fill="#ffffb3" stroke="black" points="1908.88,-122 1791.12,-122 1791.12,-86 1908.88,-86 1908.88,-122"/>
<text text-anchor="middle" x="1850" y="-99.8" font-family="Times,serif" font-size="14.00">FooterComponent</text>
</g>
<!-- FooterComponent&#45;&gt;AppModule -->
<g id="edge8" class="edge">
<title>FooterComponent&#45;&gt;AppModule</title>
<path fill="none" stroke="black" d="M1850,-122.01C1850,-138.05 1850,-159 1850,-159 1850,-159 1586.83,-159 1586.83,-159"/>
<polygon fill="black" stroke="black" points="1586.83,-155.5 1576.83,-159 1586.83,-162.5 1586.83,-155.5"/>
</g>
<!-- HomeComponent -->
<g id="node9" class="node">
<title>HomeComponent</title>
<polygon fill="#ffffb3" stroke="black" points="1772.55,-122 1657.45,-122 1657.45,-86 1772.55,-86 1772.55,-122"/>
<text text-anchor="middle" x="1715" y="-99.8" font-family="Times,serif" font-size="14.00">HomeComponent</text>
</g>
<!-- HomeComponent&#45;&gt;AppModule -->
<g id="edge9" class="edge">
<title>HomeComponent&#45;&gt;AppModule</title>
<path fill="none" stroke="black" d="M1715,-122.12C1715,-136.78 1715,-155 1715,-155 1715,-155 1586.75,-155 1586.75,-155"/>
<polygon fill="black" stroke="black" points="1586.75,-151.5 1576.75,-155 1586.75,-158.5 1586.75,-151.5"/>
</g>
<!-- ListaProdutoCategoriaComponent -->
<g id="node10" class="node">
<title>ListaProdutoCategoriaComponent</title>
<polygon fill="#ffffb3" stroke="black" points="1639.08,-122 1430.92,-122 1430.92,-86 1639.08,-86 1639.08,-122"/>
<text text-anchor="middle" x="1535" y="-99.8" font-family="Times,serif" font-size="14.00">ListaProdutoCategoriaComponent</text>
</g>
<!-- ListaProdutoCategoriaComponent&#45;&gt;AppModule -->
<g id="edge10" class="edge">
<title>ListaProdutoCategoriaComponent&#45;&gt;AppModule</title>
<path fill="none" stroke="black" d="M1535,-122.11C1535,-122.11 1535,-140.99 1535,-140.99"/>
<polygon fill="black" stroke="black" points="1531.5,-140.99 1535,-150.99 1538.5,-140.99 1531.5,-140.99"/>
</g>
<!-- LoginComponent -->
<g id="node11" class="node">
<title>LoginComponent</title>
<polygon fill="#ffffb3" stroke="black" points="1413.28,-122 1298.72,-122 1298.72,-86 1413.28,-86 1413.28,-122"/>
<text text-anchor="middle" x="1356" y="-99.8" font-family="Times,serif" font-size="14.00">LoginComponent</text>
</g>
<!-- LoginComponent&#45;&gt;AppModule -->
<g id="edge11" class="edge">
<title>LoginComponent&#45;&gt;AppModule</title>
<path fill="none" stroke="black" d="M1356,-122.12C1356,-136.78 1356,-155 1356,-155 1356,-155 1483.03,-155 1483.03,-155"/>
<polygon fill="black" stroke="black" points="1483.03,-158.5 1493.03,-155 1483.03,-151.5 1483.03,-158.5"/>
</g>
<!-- NavbarComponent -->
<g id="node12" class="node">
<title>NavbarComponent</title>
<polygon fill="#ffffb3" stroke="black" points="1280.03,-122 1157.97,-122 1157.97,-86 1280.03,-86 1280.03,-122"/>
<text text-anchor="middle" x="1219" y="-99.8" font-family="Times,serif" font-size="14.00">NavbarComponent</text>
</g>
<!-- NavbarComponent&#45;&gt;AppModule -->
<g id="edge12" class="edge">
<title>NavbarComponent&#45;&gt;AppModule</title>
<path fill="none" stroke="black" d="M1219,-122.01C1219,-138.05 1219,-159 1219,-159 1219,-159 1483.04,-159 1483.04,-159"/>
<polygon fill="black" stroke="black" points="1483.04,-162.5 1493.04,-159 1483.04,-155.5 1483.04,-162.5"/>
</g>
<!-- PesquisaComponent -->
<g id="node13" class="node">
<title>PesquisaComponent</title>
<polygon fill="#ffffb3" stroke="black" points="1140.32,-122 1009.68,-122 1009.68,-86 1140.32,-86 1140.32,-122"/>
<text text-anchor="middle" x="1075" y="-99.8" font-family="Times,serif" font-size="14.00">PesquisaComponent</text>
</g>
<!-- PesquisaComponent&#45;&gt;AppModule -->
<g id="edge13" class="edge">
<title>PesquisaComponent&#45;&gt;AppModule</title>
<path fill="none" stroke="black" d="M1075,-122.03C1075,-139.06 1075,-162 1075,-162 1075,-162 1482.96,-162 1482.96,-162"/>
<polygon fill="black" stroke="black" points="1482.96,-165.5 1492.96,-162 1482.96,-158.5 1482.96,-165.5"/>
</g>
<!-- ProdutoCategoriaComponent -->
<g id="node14" class="node">
<title>ProdutoCategoriaComponent</title>
<polygon fill="#ffffb3" stroke="black" points="992.09,-122 811.91,-122 811.91,-86 992.09,-86 992.09,-122"/>
<text text-anchor="middle" x="902" y="-99.8" font-family="Times,serif" font-size="14.00">ProdutoCategoriaComponent</text>
</g>
<!-- ProdutoCategoriaComponent&#45;&gt;AppModule -->
<g id="edge14" class="edge">
<title>ProdutoCategoriaComponent&#45;&gt;AppModule</title>
<path fill="none" stroke="black" d="M902,-122.27C902,-140.56 902,-166 902,-166 902,-166 1482.98,-166 1482.98,-166"/>
<polygon fill="black" stroke="black" points="1482.98,-169.5 1492.98,-166 1482.98,-162.5 1482.98,-169.5"/>
</g>
<!-- ProdutoComponent -->
<g id="node15" class="node">
<title>ProdutoComponent</title>
<polygon fill="#ffffb3" stroke="black" points="793.67,-122 668.33,-122 668.33,-86 793.67,-86 793.67,-122"/>
<text text-anchor="middle" x="731" y="-99.8" font-family="Times,serif" font-size="14.00">ProdutoComponent</text>
</g>
<!-- ProdutoComponent&#45;&gt;AppModule -->
<g id="edge15" class="edge">
<title>ProdutoComponent&#45;&gt;AppModule</title>
<path fill="none" stroke="black" d="M731,-122.11C731,-141.34 731,-169 731,-169 731,-169 1483.19,-169 1483.19,-169"/>
<polygon fill="black" stroke="black" points="1483.19,-172.5 1493.19,-169 1483.19,-165.5 1483.19,-172.5"/>
</g>
<!-- PutCategoriaComponent -->
<g id="node16" class="node">
<title>PutCategoriaComponent</title>
<polygon fill="#ffffb3" stroke="black" points="650.43,-122 495.57,-122 495.57,-86 650.43,-86 650.43,-122"/>
<text text-anchor="middle" x="573" y="-99.8" font-family="Times,serif" font-size="14.00">PutCategoriaComponent</text>
</g>
<!-- PutCategoriaComponent&#45;&gt;AppModule -->
<g id="edge16" class="edge">
<title>PutCategoriaComponent&#45;&gt;AppModule</title>
<path fill="none" stroke="black" d="M573,-122.13C573,-142.57 573,-173 573,-173 573,-173 1483.05,-173 1483.05,-173"/>
<polygon fill="black" stroke="black" points="1483.05,-176.5 1493.05,-173 1483.05,-169.5 1483.05,-176.5"/>
</g>
<!-- PutProdutoComponent -->
<g id="node17" class="node">
<title>PutProdutoComponent</title>
<polygon fill="#ffffb3" stroke="black" points="478.34,-122 333.66,-122 333.66,-86 478.34,-86 478.34,-122"/>
<text text-anchor="middle" x="406" y="-99.8" font-family="Times,serif" font-size="14.00">PutProdutoComponent</text>
</g>
<!-- PutProdutoComponent&#45;&gt;AppModule -->
<g id="edge17" class="edge">
<title>PutProdutoComponent&#45;&gt;AppModule</title>
<path fill="none" stroke="black" d="M406,-122.04C406,-143.66 406,-177 406,-177 406,-177 1483.14,-177 1483.14,-177"/>
<polygon fill="black" stroke="black" points="1483.14,-180.5 1493.14,-177 1483.14,-173.5 1483.14,-180.5"/>
</g>
<!-- SaibaMaisComponent -->
<g id="node18" class="node">
<title>SaibaMaisComponent</title>
<polygon fill="#ffffb3" stroke="black" points="316.43,-122 175.57,-122 175.57,-86 316.43,-86 316.43,-122"/>
<text text-anchor="middle" x="246" y="-99.8" font-family="Times,serif" font-size="14.00">SaibaMaisComponent</text>
</g>
<!-- SaibaMaisComponent&#45;&gt;AppModule -->
<g id="edge18" class="edge">
<title>SaibaMaisComponent&#45;&gt;AppModule</title>
<path fill="none" stroke="black" d="M246,-122.01C246,-144.49 246,-180 246,-180 246,-180 1483.21,-180 1483.21,-180"/>
<polygon fill="black" stroke="black" points="1483.21,-183.5 1493.21,-180 1483.21,-176.5 1483.21,-183.5"/>
</g>
<!-- AppComponent  -->
<g id="node21" class="node">
<title>AppComponent </title>
<polygon fill="#80b1d3" stroke="black" points="1589.44,-252 1480.56,-252 1480.56,-216 1589.44,-216 1589.44,-252"/>
<text text-anchor="middle" x="1535" y="-229.8" font-family="Times,serif" font-size="14.00">AppComponent </text>
</g>
<!-- AppModule&#45;&gt;AppComponent  -->
<g id="edge20" class="edge">
<title>AppModule&#45;&gt;AppComponent </title>
<path fill="none" stroke="black" stroke-dasharray="1,5" d="M1535,-187.11C1535,-187.11 1535,-205.99 1535,-205.99"/>
<polygon fill="black" stroke="black" points="1531.5,-205.99 1535,-215.99 1538.5,-205.99 1531.5,-205.99"/>
</g>
<!-- AppRoutingModule -->
<g id="node20" class="node">
<title>AppRoutingModule</title>
<polygon fill="#8dd3c7" stroke="black" points="152.27,-122 149.27,-126 128.27,-126 125.27,-122 23.73,-122 23.73,-86 152.27,-86 152.27,-122"/>
<text text-anchor="middle" x="88" y="-99.8" font-family="Times,serif" font-size="14.00">AppRoutingModule</text>
</g>
<!-- AppRoutingModule&#45;&gt;AppModule -->
<g id="edge19" class="edge">
<title>AppRoutingModule&#45;&gt;AppModule</title>
<path fill="none" stroke="black" d="M88,-122.15C88,-145.76 88,-184 88,-184 88,-184 1483.25,-184 1483.25,-184"/>
<polygon fill="black" stroke="black" points="1483.25,-187.5 1493.25,-184 1483.25,-180.5 1483.25,-187.5"/>
</g>
</g>
</svg>
