<svg id="Layer_3" enable-background="new 0 0 64 64" height="512" viewBox="0 0 64 64" width="512" xmlns="http://www.w3.org/2000/svg"><g><path d="m45 6h4v8h-4z" fill="#fadfb2"/><path d="m56.009 62h-18.009c-3.314 0-6-2.686-6-6v-30c0-3.314 2.686-6 6-6h18.009c3.314 0 6 2.686 6 6v30c0 3.314-2.686 6-6 6z" fill="#efbe9a"/><path d="m54 56h-14c-1.105 0-2-.895-2-2v-26c0-1.105.895-2 2-2h14c1.105 0 2 .895 2 2v26c0 1.105-.895 2-2 2z" fill="#e47c6e"/><path d="m56 44.28c-.58-.185-1.188-.28-1.803-.28h-.394c-1.175 0-2.325.348-3.303 1-.978.652-2.127 1-3.303 1h-.197l-5.378-1.827c-.464-.114-.942-.173-1.425-.173h-.394c-.615 0-1.223.095-1.803.28v9.72c0 1.105.895 2 2 2h14c1.105 0 2-.895 2-2z" fill="#c66b60"/><path d="m19 10v.464c0 2.264.899 4.435 2.5 6.036 1.601 1.601 2.5 3.772 2.5 6.036v34.464c0 2.761-2.239 5-5 5h-12c-2.761 0-5-2.239-5-5v-34.464c0-2.264.899-4.435 2.5-6.036 1.601-1.601 2.5-3.772 2.5-6.036v-.464" fill="#d5cec2"/><path d="m7 10.464c0 2.264-.899 4.435-2.5 6.036s-2.5 3.772-2.5 6.036v9.64c9.202-2.415 16-10.765 16-20.725 0-.49-.041-.969-.073-1.451h-10.927z" fill="#e7e4dd"/><path d="m19 10h-12c-1.105 0-2-.895-2-2v-4c0-1.105.895-2 2-2h12c1.105 0 2 .895 2 2v4c0 1.105-.895 2-2 2z" fill="#78b75b"/><path d="m21 5h-4c-.64 0-1.254.254-1.707.707l-.586.586c-.453.453-1.067.707-1.707.707-.64 0-1.254-.254-1.707-.707l-.586-.586c-.453-.453-1.067-.707-1.707-.707h-4v-1c0-1.105.895-2 2-2h12c1.105 0 2 .895 2 2z" fill="#669e4f"/><path d="m2 27h22v24h-22z" fill="#96cc7f"/><path d="m14.732 43h.268c.749 0 1.394-.417 1.737-1.027.087.012.173.027.263.027 1.105 0 2-.895 2-2 0-.09-.015-.176-.027-.263.61-.343 1.027-.988 1.027-1.737s-.417-1.394-1.027-1.737c.012-.087.027-.173.027-.263 0-1.105-.895-2-2-2-.09 0-.176.015-.263.027-.343-.61-.988-1.027-1.737-1.027s-1.394.417-1.737 1.027c-.087-.012-.173-.027-.263-.027-.747 0-1.398.409-1.742 1.016v.001c.638.083 1.176.471 1.479 1.01.087-.012.173-.027.263-.027 1.105 0 2 .895 2 2 0 .09-.015.176-.027.263.61.343 1.027.988 1.027 1.737s-.417 1.394-1.027 1.737c.012.087.027.173.027.263 0 .364-.097.706-.268 1z" fill="#669e4f"/><path d="m38 20v-4c0-1.105.895-2 2-2h14c1.105 0 2 .895 2 2v4" fill="#c66b60"/><path d="m54 6h-13v-4h15l5 5-3 3z" fill="#c66b60"/><g><path d="m42 17h2v3h-2z" fill="#e47c6e"/></g><g><path d="m46 17h2v3h-2z" fill="#e47c6e"/></g><g><path d="m50 17h2v3h-2z" fill="#e47c6e"/></g><circle cx="44" cy="46" fill="#c7e2fc" r="3"/><circle cx="50" cy="38" fill="#ebf7fe" r="2"/><circle cx="44" cy="32" fill="#c7e2fc" r="2"/><path d="m16 40c0-.749-.417-1.394-1.027-1.737.012-.087.027-.173.027-.263 0-1.105-.895-2-2-2-.09 0-.176.015-.263.027-.343-.61-.988-1.027-1.737-1.027s-1.394.417-1.737 1.027c-.087-.012-.173-.027-.263-.027-1.105 0-2 .895-2 2 0 .09.015.176.027.263-.61.343-1.027.988-1.027 1.737s.417 1.394 1.027 1.737c-.012.087-.027.173-.027.263 0 1.105.895 2 2 2 .09 0 .176-.015.263-.027.343.61.988 1.027 1.737 1.027s1.394-.417 1.737-1.027c.087.012.173.027.263.027 1.105 0 2-.895 2-2 0-.09-.015-.176-.027-.263.61-.343 1.027-.988 1.027-1.737z" fill="#78b75b"/></g></svg>